<svg width="36" height="37" viewBox="0 0 36 37" fill="none" xmlns="http://www.w3.org/2000/svg">
<path fill-rule="evenodd" clip-rule="evenodd" d="M17.3778 0.173828H18.6222C21.8707 0.17381 24.4317 0.173795 26.4667 0.394279C28.5488 0.619856 30.2583 1.09063 31.7235 2.15516C32.6043 2.79505 33.3788 3.56957 34.0187 4.4503C35.0832 5.91551 35.554 7.62505 35.7795 9.7071C36 11.7421 36 14.3032 36 17.5516V18.796C36 22.0445 36 24.6055 35.7795 26.6406C35.554 28.7226 35.0832 30.4322 34.0187 31.8974C33.3788 32.7781 32.6043 33.5526 31.7235 34.1925C30.2583 35.257 28.5488 35.7278 26.4667 35.9534C24.4317 36.1739 21.8707 36.1738 18.6222 36.1738H17.3778C14.1293 36.1738 11.5683 36.1739 9.53327 35.9534C7.45122 35.7278 5.74168 35.257 4.27648 34.1925C3.39575 33.5526 2.62122 32.7781 1.98133 31.8974C0.9168 30.4322 0.446028 28.7226 0.220451 26.6406C-3.31476e-05 24.6055 -1.84274e-05 22.0445 3.45415e-07 18.796V17.5517C-1.84274e-05 14.3032 -3.31476e-05 11.7422 0.220451 9.7071C0.446027 7.62505 0.9168 5.91551 1.98133 4.4503C2.62122 3.56957 3.39575 2.79505 4.27648 2.15516C5.74168 1.09063 7.45122 0.619856 9.53327 0.394279C11.5683 0.173795 14.1293 0.17381 17.3778 0.173828ZM9.858 3.39152C8.03246 3.5893 6.91414 3.96525 6.04852 4.59417C5.42373 5.0481 4.87428 5.59755 4.42034 6.22235C3.79143 7.08797 3.41548 8.20629 3.21769 10.0318C3.01685 11.8856 3.01478 14.2833 3.01478 17.6418V18.7058C3.01478 22.0643 3.01685 24.4621 3.21769 26.3158C3.41548 28.1414 3.79143 29.2597 4.42034 30.1253C4.87428 30.7501 5.42373 31.2996 6.04852 31.7535C6.91414 32.3824 8.03246 32.7584 9.858 32.9561C11.7118 33.157 14.1095 33.1591 17.468 33.1591H18.532C21.8905 33.1591 24.2882 33.157 26.142 32.9561C27.9675 32.7584 29.0859 32.3824 29.9515 31.7535C30.5763 31.2996 31.1257 30.7501 31.5797 30.1253C32.2086 29.2597 32.5845 28.1414 32.7823 26.3158C32.9832 24.4621 32.9852 22.0643 32.9852 18.7058V17.6418C32.9852 14.2833 32.9832 11.8856 32.7823 10.0318C32.5845 8.20629 32.2086 7.08797 31.5797 6.22235C31.1257 5.59755 30.5763 5.0481 29.9515 4.59417C29.0859 3.96525 27.9675 3.5893 26.142 3.39152C24.2882 3.19068 21.8905 3.18861 18.532 3.18861H17.468C14.1095 3.18861 11.7118 3.19068 9.858 3.39152Z" fill="white"/>
<path fill-rule="evenodd" clip-rule="evenodd" d="M18 12.0556C14.621 12.0556 11.8818 14.7948 11.8818 18.1738C11.8818 21.5528 14.621 24.2921 18 24.2921C21.379 24.2921 24.1182 21.5528 24.1182 18.1738C24.1182 14.7948 21.379 12.0556 18 12.0556ZM8.867 18.1738C8.867 13.1298 12.956 9.04082 18 9.04082C23.044 9.04082 27.133 13.1298 27.133 18.1738C27.133 23.2178 23.044 27.3068 18 27.3068C12.956 27.3068 8.867 23.2178 8.867 18.1738Z" fill="white"/>
<path d="M25.6256 8.53097C25.6256 7.39239 26.5486 6.4694 27.6872 6.4694C28.8258 6.4694 29.7488 7.39239 29.7488 8.53097C29.7488 9.66955 28.8258 10.5925 27.6872 10.5925C26.5486 10.5925 25.6256 9.66955 25.6256 8.53097Z" fill="white"/>
</svg>
