<svg width="36" height="37" viewBox="0 0 36 37" fill="none" xmlns="http://www.w3.org/2000/svg">
<path d="M12.8299 16.0901C11.2286 16.7048 9.58324 17.3364 8.07874 18.065C7.29307 18.5708 8.33749 18.9286 9.3171 19.2641C9.47273 19.3175 9.62672 19.3702 9.77148 19.4229C9.89201 19.4555 10.0146 19.4898 10.1388 19.5246C11.2282 19.8298 12.443 20.17 13.5007 19.6582C15.2382 18.7807 16.8778 17.7662 18.5162 16.7524C19.053 16.4203 19.5896 16.0883 20.1295 15.7611C20.1548 15.7469 20.1834 15.7306 20.2146 15.7129C20.6745 15.4507 21.7089 14.8612 21.3263 15.6735C20.4215 16.5435 19.4524 17.3136 18.478 18.0879C17.8213 18.6097 17.1622 19.1334 16.5188 19.6909C15.9584 20.0912 15.3765 20.8963 16.004 21.4569C17.4492 22.3464 18.9171 23.2144 20.3841 24.0819C20.8614 24.3642 21.3387 24.6464 21.8151 24.9293C22.6225 25.4961 23.8844 25.0376 24.0619 24.152C24.1408 23.7446 24.22 23.3373 24.2993 22.9299C24.7373 20.6785 25.1754 18.4262 25.5625 16.1674C25.6151 15.8131 25.6747 15.4588 25.7344 15.1043C25.879 14.2452 26.0238 13.385 26.069 12.5213C25.9524 11.6593 24.7637 11.8488 24.1021 12.0427C20.7018 13.1802 17.3354 14.4021 13.9824 15.6456C13.6025 15.7935 13.2175 15.9413 12.8299 16.0901Z" fill="white"/>
<path fill-rule="evenodd" clip-rule="evenodd" d="M17.3778 0.173828C14.1293 0.17381 11.5683 0.173795 9.53327 0.394279C7.45122 0.619856 5.74168 1.09063 4.27648 2.15516C3.39575 2.79505 2.62122 3.56957 1.98133 4.4503C0.9168 5.91551 0.446028 7.62505 0.220451 9.7071C-3.29912e-05 11.7422 -1.82629e-05 14.3032 3.40788e-07 17.5517V18.796C-1.82629e-05 22.0445 -3.29912e-05 24.6055 0.220451 26.6406C0.446028 28.7226 0.9168 30.4322 1.98133 31.8974C2.62122 32.7781 3.39575 33.5526 4.27648 34.1925C5.74168 35.257 7.45122 35.7278 9.53327 35.9534C11.5683 36.1739 14.1293 36.1738 17.3777 36.1738H18.6222C21.8706 36.1738 24.4317 36.1739 26.4667 35.9534C28.5488 35.7278 30.2583 35.257 31.7235 34.1925C32.6043 33.5526 33.3788 32.7781 34.0187 31.8974C35.0832 30.4322 35.554 28.7226 35.7795 26.6406C36 24.6055 36 22.0445 36 18.7961V17.5516C36 14.3032 36 11.7421 35.7795 9.7071C35.554 7.62505 35.0832 5.91551 34.0187 4.4503C33.3788 3.56957 32.6043 2.79505 31.7235 2.15516C30.2583 1.09063 28.5488 0.619856 26.4667 0.394279C24.4317 0.173795 21.8707 0.17381 18.6222 0.173828H17.3778ZM6.04852 4.59417C6.91414 3.96525 8.03246 3.5893 9.858 3.39152C11.7118 3.19068 14.1095 3.18861 17.468 3.18861H18.532C21.8905 3.18861 24.2882 3.19068 26.142 3.39152C27.9675 3.5893 29.0859 3.96525 29.9515 4.59417C30.5763 5.0481 31.1257 5.59755 31.5797 6.22235C32.2086 7.08797 32.5845 8.20629 32.7823 10.0318C32.9832 11.8856 32.9852 14.2833 32.9852 17.6418V18.7058C32.9852 22.0643 32.9832 24.4621 32.7823 26.3158C32.5845 28.1414 32.2086 29.2597 31.5797 30.1253C31.1257 30.7501 30.5763 31.2996 29.9515 31.7535C29.0859 32.3824 27.9675 32.7584 26.142 32.9561C24.2882 33.157 21.8905 33.1591 18.532 33.1591H17.468C14.1095 33.1591 11.7118 33.157 9.858 32.9561C8.03246 32.7584 6.91414 32.3824 6.04852 31.7535C5.42373 31.2996 4.87428 30.7501 4.42034 30.1253C3.79143 29.2597 3.41548 28.1414 3.21769 26.3158C3.01685 24.4621 3.01478 22.0643 3.01478 18.7058V17.6418C3.01478 14.2833 3.01685 11.8856 3.21769 10.0318C3.41548 8.20629 3.79143 7.08797 4.42034 6.22235C4.87428 5.59755 5.42373 5.0481 6.04852 4.59417Z" fill="white"/>
</svg>
